<svg width="29" height="29" viewBox="0 0 29 29" fill="none" xmlns="http://www.w3.org/2000/svg">
<ellipse cx="14.5" cy="14.8077" rx="14" ry="14.0431" fill="#1E293B"/>
<path d="M20.7071 11.7815C20.2881 11.9683 19.8458 12.085 19.3802 12.1551C19.8458 11.8749 20.2183 11.4312 20.3812 10.8942C19.9389 11.151 19.4501 11.3378 18.9146 11.4546C18.4956 11.0109 17.8904 10.7307 17.2386 10.7307C15.9815 10.7307 14.9572 11.7581 14.9572 13.0191C14.9572 13.2059 14.9805 13.3693 15.0271 13.5328C13.1415 13.4394 11.4421 12.5287 10.3014 11.1277C10.1152 11.4779 9.99878 11.8515 9.99878 12.2719C9.99878 13.0658 10.3945 13.7663 11.0231 14.1866C10.6506 14.1633 10.3014 14.0698 9.9755 13.9064V13.9297C9.9755 15.0506 10.767 15.9846 11.8145 16.1948C11.6283 16.2415 11.4188 16.2648 11.2093 16.2648C11.0696 16.2648 10.9067 16.2415 10.767 16.2181C11.0696 17.1288 11.9077 17.8059 12.9087 17.8059C12.1172 18.4131 11.1395 18.7867 10.0686 18.7867C9.88239 18.7867 9.69616 18.7867 9.5332 18.7633C10.5575 19.4171 11.7447 19.7907 13.0483 19.7907C17.2618 19.7907 19.5665 16.2882 19.5665 13.2526C19.5665 13.1592 19.5665 13.0424 19.5665 12.949C20.0088 12.6455 20.4045 12.2485 20.7071 11.7815Z" fill="white"/>
</svg>
