<svg width="29" height="29" viewBox="0 0 29 29" fill="none" xmlns="http://www.w3.org/2000/svg">
<ellipse cx="14.1001" cy="14.8077" rx="14" ry="14.0431" fill="#1E293B"/>
<path d="M14.1009 9.23783C15.9096 9.23783 16.1238 9.24462 16.8383 9.2773C17.2679 9.28258 17.6934 9.3617 18.0963 9.51125C18.3885 9.62428 18.6539 9.79744 18.8754 10.0196C19.0968 10.2417 19.2695 10.5079 19.3821 10.801C19.5312 11.2052 19.6101 11.632 19.6154 12.0629C19.6476 12.7797 19.6547 12.9945 19.6547 14.8088C19.6547 16.623 19.648 16.8379 19.6154 17.5546C19.6101 17.9855 19.5312 18.4124 19.3821 18.8165C19.2695 19.1097 19.0968 19.3758 18.8754 19.598C18.6539 19.8201 18.3885 19.9933 18.0963 20.1063C17.6934 20.2558 17.2679 20.335 16.8383 20.3403C16.1241 20.3726 15.9099 20.3797 14.1009 20.3797C12.2918 20.3797 12.0776 20.3729 11.3634 20.3403C10.9338 20.335 10.5083 20.2558 10.1054 20.1063C9.81316 19.9933 9.54779 19.8201 9.32634 19.598C9.10488 19.3758 8.93225 19.1097 8.81956 18.8165C8.67048 18.4124 8.59159 17.9855 8.58634 17.5546C8.55408 16.8379 8.54698 16.623 8.54698 14.8088C8.54698 12.9945 8.55376 12.7797 8.58634 12.0629C8.59159 11.632 8.67048 11.2052 8.81956 10.801C8.93225 10.5079 9.10488 10.2417 9.32634 10.0196C9.54779 9.79744 9.81316 9.62428 10.1054 9.51125C10.5083 9.3617 10.9338 9.28258 11.3634 9.2773C12.078 9.24495 12.2921 9.23783 14.1009 9.23783ZM14.1009 8.01343C12.2621 8.01343 12.0305 8.02119 11.308 8.0542C10.7457 8.06542 10.1894 8.1722 9.66279 8.37C9.21101 8.54074 8.80182 8.8083 8.46376 9.15402C8.11879 9.49325 7.85182 9.90393 7.6815 10.3574C7.4843 10.8857 7.37784 11.4436 7.36666 12.0076C7.3344 12.7318 7.32666 12.9641 7.32666 14.8085C7.32666 16.6528 7.3344 16.8851 7.36731 17.6099C7.37849 18.1739 7.48494 18.7319 7.68214 19.2602C7.85228 19.7136 8.11902 20.1242 8.46376 20.4635C8.80201 20.8093 9.21143 21.0769 9.66343 21.2475C10.1901 21.4454 10.7464 21.5521 11.3086 21.5634C12.0312 21.5957 12.2618 21.6041 14.1015 21.6041C15.9412 21.6041 16.1718 21.5964 16.8944 21.5634C17.4566 21.5521 18.0129 21.4454 18.5396 21.2475C18.9894 21.0726 19.3979 20.8055 19.739 20.4632C20.08 20.1208 20.3461 19.7109 20.5202 19.2595C20.7174 18.7313 20.8239 18.1733 20.835 17.6093C20.8673 16.8851 20.875 16.6528 20.875 14.8085C20.875 12.9641 20.8673 12.7318 20.8344 12.007C20.8232 11.443 20.7168 10.885 20.5196 10.3567C20.3494 9.90334 20.0827 9.49266 19.738 9.15337C19.3997 8.80758 18.9903 8.54001 18.5383 8.36936C18.0116 8.17155 17.4554 8.06477 16.8931 8.05355C16.1712 8.02119 15.9396 8.01343 14.1009 8.01343Z" fill="white"/>
<path d="M14.1022 11.3206C13.4142 11.3206 12.7416 11.5252 12.1696 11.9086C11.5975 12.292 11.1516 12.837 10.8883 13.4746C10.625 14.1122 10.5562 14.8138 10.6904 15.4907C10.8246 16.1676 11.1559 16.7893 11.6424 17.2773C12.1289 17.7653 12.7488 18.0977 13.4236 18.2323C14.0984 18.367 14.7978 18.2979 15.4335 18.0338C16.0691 17.7697 16.6124 17.3224 16.9947 16.7486C17.3769 16.1747 17.581 15.5001 17.581 14.81C17.581 13.8845 17.2145 12.997 16.5621 12.3426C15.9097 11.6882 15.0249 11.3206 14.1022 11.3206ZM14.1022 17.075C13.6556 17.075 13.2191 16.9421 12.8477 16.6932C12.4764 16.4444 12.187 16.0906 12.0161 15.6767C11.8452 15.2629 11.8004 14.8075 11.8876 14.3681C11.9747 13.9287 12.1898 13.5251 12.5056 13.2084C12.8214 12.8916 13.2237 12.6759 13.6617 12.5885C14.0997 12.5011 14.5538 12.5459 14.9664 12.7174C15.379 12.8888 15.7316 13.1791 15.9798 13.5516C16.2279 13.9241 16.3603 14.362 16.3603 14.81C16.3603 15.4107 16.1224 15.9868 15.6989 16.4116C15.2755 16.8363 14.7011 17.075 14.1022 17.075Z" fill="white"/>
<path d="M17.7177 11.9973C18.1666 11.9973 18.5306 11.6322 18.5306 11.1819C18.5306 10.7315 18.1666 10.3665 17.7177 10.3665C17.2687 10.3665 16.9048 10.7315 16.9048 11.1819C16.9048 11.6322 17.2687 11.9973 17.7177 11.9973Z" fill="white"/>
</svg>
