<svg width="29" height="29" viewBox="0 0 29 29" fill="none" xmlns="http://www.w3.org/2000/svg">
<ellipse cx="14.8999" cy="14.8077" rx="14" ry="14.0431" fill="#1E293B"/>
<path fill-rule="evenodd" clip-rule="evenodd" d="M15.5087 8.01343C11.9178 8.01343 9.02881 10.9113 9.02881 14.5133C9.02881 17.384 10.8918 19.8214 13.4567 20.6881C13.7807 20.7422 13.8887 20.5527 13.8887 20.3631C13.8887 20.2006 13.8887 19.7944 13.8887 19.2527C12.0798 19.6589 11.7018 18.3861 11.7018 18.3861C11.4048 17.6278 10.9728 17.4382 10.9728 17.4382C10.3788 17.0319 11.0268 17.0319 11.0268 17.0319C11.6748 17.0861 12.0258 17.709 12.0258 17.709C12.5928 18.7111 13.5377 18.4131 13.9157 18.2507C13.9697 17.8173 14.1317 17.5465 14.3207 17.384C12.8897 17.2215 11.3778 16.6528 11.3778 14.1612C11.3778 13.457 11.6208 12.8612 12.0528 12.4279C11.9988 12.2654 11.7558 11.6154 12.1068 10.6946C12.1068 10.6946 12.6468 10.5321 13.8887 11.3717C14.4017 11.2363 14.9687 11.155 15.5087 11.155C16.0487 11.155 16.6157 11.2363 17.1287 11.3717C18.3707 10.5321 18.9106 10.6946 18.9106 10.6946C19.2616 11.5883 19.0456 12.2383 18.9646 12.4279C19.3696 12.8883 19.6396 13.457 19.6396 14.1612C19.6396 16.6528 18.1277 17.1944 16.6697 17.3569C16.9127 17.5465 17.1017 17.9527 17.1017 18.5486C17.1017 19.4152 17.1017 20.1193 17.1017 20.336C17.1017 20.4985 17.2097 20.7152 17.5607 20.661C20.1256 19.8214 21.9886 17.384 21.9886 14.5133C21.9886 10.9113 19.0996 8.01343 15.5087 8.01343Z" fill="white"/>
</svg>
