<svg width="43" height="43" viewBox="0 0 43 43" fill="none" xmlns="http://www.w3.org/2000/svg">
<path d="M10.0103 25.0199H6.34363C3.5822 25.0199 1.34363 27.2585 1.34363 30.0199V37.0199C1.34363 39.7813 3.5822 42.0199 6.34363 42.0199H36.3436C39.1051 42.0199 41.3436 39.7813 41.3436 37.0199V30.0199C41.3436 27.2585 39.1051 25.0199 36.3436 25.0199H32.177C30.6122 25.0199 29.3436 26.2884 29.3436 27.8532C29.3436 29.418 28.0751 30.6866 26.5103 30.6866H15.677C14.1122 30.6866 12.8436 29.418 12.8436 27.8532C12.8436 26.2884 11.5751 25.0199 10.0103 25.0199Z" fill="#D4D4D8"/>
<path d="M9.34363 9.0199H33.3436" stroke="#161616" stroke-width="2" stroke-miterlimit="10" stroke-linecap="round" stroke-linejoin="round"/>
<path d="M9.34363 17.0199H33.3436" stroke="#161616" stroke-width="2" stroke-miterlimit="10" stroke-linecap="round" stroke-linejoin="round"/>
<path d="M1.34363 25.0199H13.3436V31.0199H29.3436V25.0199H41.3436" stroke="#161616" stroke-width="2" stroke-miterlimit="10" stroke-linecap="round" stroke-linejoin="round"/>
<path d="M37.3436 1.0199H5.34363C3.13449 1.0199 1.34363 2.81076 1.34363 5.0199V37.0199C1.34363 39.229 3.13449 41.0199 5.34363 41.0199H37.3436C39.5528 41.0199 41.3436 39.229 41.3436 37.0199V5.0199C41.3436 2.81076 39.5528 1.0199 37.3436 1.0199Z" stroke="#161616" stroke-width="2" stroke-miterlimit="10" stroke-linecap="round" stroke-linejoin="round"/>
</svg>
