<svg width="41" height="35" viewBox="0 0 41 35" fill="none" xmlns="http://www.w3.org/2000/svg">
<path d="M40.5946 34.3H25.2478C23.7484 29.1667 22.9987 23.8467 22.9987 18.34C22.9987 12.74 24.3658 8.30666 27.1 5.03999C29.9224 1.68 34.0678 0 39.5362 0V7.84C35.1262 7.84 32.9212 10.6867 32.9212 16.38V19.04H40.5946V34.3ZM18.2359 34.3H2.88911C1.38971 29.1667 0.640015 23.8467 0.640015 18.34C0.640015 12.74 2.00711 8.30666 4.74131 5.03999C7.56371 1.68 11.7091 0 17.1775 0V7.84C12.7675 7.84 10.5625 10.6867 10.5625 16.38V19.04H18.2359V34.3Z" fill="#CBD5E1"/>
</svg>
